<svg viewBox="0 0 71 71" xmlns="http://www.w3.org/2000/svg" fill="#3863a6"><path d="M11.828 36.861l3.652-1.736 2.572 1.065L19.407 40a1.095 1.095 0 001.03.728h4.766a1.094 1.094 0 001.03-.727l1.356-3.811 2.571-1.065 3.653 1.736a1.094 1.094 0 001.243-.214l3.37-3.37a1.094 1.094 0 00.215-1.243l-1.736-3.653 1.064-2.571 3.811-1.355a1.094 1.094 0 00.727-1.031v-4.767a1.094 1.094 0 00-.727-1.03l-3.81-1.356-1.066-2.57 1.737-3.654a1.094 1.094 0 00-.215-1.243l-3.37-3.37a1.094 1.094 0 00-1.243-.215L30.16 6.956 27.59 5.89l-1.357-3.81a1.094 1.094 0 00-1.03-.727h-4.768a1.094 1.094 0 00-1.03.727L18.05 5.89l-2.571 1.066-3.652-1.737a1.094 1.094 0 00-1.244.215l-3.37 3.37a1.094 1.094 0 00-.215 1.244l1.736 3.653-1.065 2.57-3.81 1.355a1.094 1.094 0 00-.728 1.03v4.768a1.094 1.094 0 00.728 1.03l3.81 1.355 1.065 2.571L7 32.033a1.094 1.094 0 00.214 1.244l3.37 3.37a1.094 1.094 0 001.245.214zm-.886-8.869l-1.437-3.469a1.093 1.093 0 00-.644-.612l-3.541-1.26V19.43l3.54-1.26a1.093 1.093 0 00.645-.612l1.437-3.469a1.093 1.093 0 00-.022-.888L9.306 9.805l2.279-2.279L14.98 9.14a1.092 1.092 0 00.888.022l3.47-1.437a1.094 1.094 0 00.61-.644l1.26-3.54h3.223l1.26 3.54a1.094 1.094 0 00.612.644l3.469 1.438a1.092 1.092 0 00.889-.023l3.394-1.613 2.28 2.279L34.72 13.2a1.095 1.095 0 00-.023.89l1.438 3.468a1.093 1.093 0 00.643.611l3.54 1.26v3.223l-3.54 1.26a1.092 1.092 0 00-.644.611l-1.438 3.47a1.093 1.093 0 00.023.888l1.613 3.395-2.279 2.279-3.394-1.614a1.092 1.092 0 00-.889-.022l-3.47 1.437a1.093 1.093 0 00-.61.643l-1.26 3.541h-3.223L19.948 35a1.093 1.093 0 00-.611-.645l-3.47-1.437a1.092 1.092 0 00-.888.022l-3.395 1.614-2.278-2.279 1.613-3.394a1.096 1.096 0 00.023-.889z"/><path d="M22.82 30.884a9.844 9.844 0 10-9.844-9.844 9.855 9.855 0 009.844 9.844zm0-17.5a7.657 7.657 0 11-7.656 7.656 7.665 7.665 0 017.656-7.656zm21.164 40.67l-1.437 3.47a1.097 1.097 0 00.023.888l1.613 3.395-2.28 2.279-3.394-1.613a1.094 1.094 0 00-.889-.023l-3.468 1.436a1.094 1.094 0 00-.612.644l-1.26 3.542h-3.222l-1.26-3.541a1.094 1.094 0 00-.611-.644l-3.47-1.438a1.094 1.094 0 00-.888.023l-3.395 1.613-2.279-2.279 1.613-3.394a1.095 1.095 0 00.023-.889l-1.437-3.47a1.093 1.093 0 00-.643-.61l-3.541-1.26V48.96l3.54-1.26a1.095 1.095 0 00.645-.611l1.437-3.47a1.093 1.093 0 00-.023-.888l-1.945-4.092-1.975.94 1.736 3.653-1.065 2.571-3.81 1.355a1.093 1.093 0 00-.727 1.03v4.768a1.093 1.093 0 00.727 1.03l3.81 1.355 1.065 2.571-1.736 3.653a1.094 1.094 0 00.215 1.243l3.37 3.37a1.094 1.094 0 001.243.215l3.652-1.737 2.57 1.065 1.356 3.81a1.095 1.095 0 001.031.728h4.767a1.094 1.094 0 001.03-.727l1.356-3.81 2.57-1.066 3.653 1.736a1.093 1.093 0 001.243-.214l3.37-3.37a1.093 1.093 0 00.216-1.243l-1.737-3.653 1.251-3.02-2.021-.838zm2.292-15.719l-3.37-3.37a1.094 1.094 0 00-1.244-.215l-4.091 1.946.939 1.975 3.395-1.613 2.279 2.279-1.614 3.395a1.092 1.092 0 00-.022.888l1.24 2.996 2.021-.837-1.054-2.547 1.736-3.652a1.094 1.094 0 00-.215-1.245z"/><path d="M30.67 60.415a9.843 9.843 0 10-9.844-9.843 9.855 9.855 0 009.844 9.843zm0-17.5a7.656 7.656 0 11-7.657 7.657 7.665 7.665 0 017.657-7.657zm37.36-22.007l-3.81-1.356-1.066-2.57 1.737-3.653a1.094 1.094 0 00-.215-1.244l-3.37-3.37a1.094 1.094 0 00-1.243-.214l-3.653 1.736-2.57-1.065-1.356-3.81a1.094 1.094 0 00-1.03-.728h-4.768a1.094 1.094 0 00-1.03.727L44.3 9.171l-3.02 1.252.837 2.021 3.469-1.437a1.096 1.096 0 00.612-.644l1.259-3.541h3.223l1.26 3.54a1.093 1.093 0 00.612.645l3.469 1.437a1.095 1.095 0 00.889-.023l3.394-1.613 2.28 2.28-1.614 3.394a1.091 1.091 0 00-.023.888l1.438 3.47a1.093 1.093 0 00.643.61l3.54 1.26v3.223l-3.54 1.26a1.094 1.094 0 00-.644.612l-1.438 3.469a1.093 1.093 0 00.023.888l1.613 3.395-2.825 2.825 1.548 1.546 3.37-3.37a1.094 1.094 0 00.215-1.243l-1.737-3.653 1.065-2.571 3.811-1.355a1.094 1.094 0 00.727-1.031v-4.767a1.094 1.094 0 00-.727-1.03z"/><path d="M49.07 31.978a7.627 7.627 0 01-7.1-4.785l-2.028.82a9.843 9.843 0 104.205-12.218l1.096 1.894a7.656 7.656 0 113.827 14.289zm12.407 10.937H57.82V38.54a3.28 3.28 0 10-6.563 0v9.391l-.734-.735a3.414 3.414 0 10-4.828 4.829l5.563 5.562v1.734h-1.094a1.094 1.094 0 00-1.094 1.094v9.844h2.188v-8.75h13.124v8.75h2.188v-9.844a1.094 1.094 0 00-1.094-1.093h-1.094v-1.735l2.243-2.242a7.281 7.281 0 00-5.148-12.43zm3.601 10.883l-2.563 2.563c-.205.205-.32.483-.32.773v2.188h-8.75v-2.188a1.093 1.093 0 00-.32-.773l-5.883-5.883a1.226 1.226 0 111.734-1.735l2.602 2.602a1.094 1.094 0 001.867-.773V38.54a1.094 1.094 0 112.188 0v5.469a1.094 1.094 0 001.093 1.094h4.75a5.094 5.094 0 013.602 8.695z"/><path d="M60.007 63.697h2.188v2.187h-2.188v-2.188z"/></svg>