<svg viewBox="0 0 71 70" xmlns="http://www.w3.org/2000/svg" fill="#3863a6"><path d="M67.52 19.568l-.003-.002-4.195-.598a1.079 1.079 0 01-.496-1.931l3.391-2.543a1.079 1.079 0 00.216-1.51L62.55 7.807a1.079 1.079 0 00-1.51-.216l-3.39 2.543a1.079 1.079 0 01-1.719-1.015l.6-4.195a1.079 1.079 0 00-.915-1.221l-6.403-.915a1.078 1.078 0 00-1.22.915l-.6 4.195a1.079 1.079 0 01-1.931.496L42.92 5.003a1.079 1.079 0 00-1.51-.216l-3.241 2.432a20.869 20.869 0 00-4.412 0 20.492 20.492 0 00-18.069 18.375c-.029.305-.04.608-.055.912h-.323c-.512 0-.953.361-1.055.862l-.745 3.545-2.986-2.06a1.078 1.078 0 00-1.375.126l-3.235 3.235c-.368.368-.42.946-.125 1.374l2.049 2.98-3.545.746a1.079 1.079 0 00-.848 1.056v4.314c0 .51.357.95.856 1.056l3.545.745-2.049 2.98a1.079 1.079 0 00.125 1.374l3.236 3.236c.368.368.947.42 1.375.125l2.98-2.055.745 3.545c.103.502.543.862 1.055.863h4.314c.51 0 .951-.357 1.056-.856l.745-3.545 2.98 2.049a1.079 1.079 0 001.375-.125l1.675-1.68v3.073a4.3 4.3 0 002.157 3.715v5.992a4.314 4.314 0 004.314 4.314h4.314a4.314 4.314 0 004.314-4.314v-5.992a4.3 4.3 0 002.157-3.715V49.2a5.285 5.285 0 012.495-4.402c.895-.58 1.744-1.23 2.539-1.942l-1.439-1.607a18.356 18.356 0 01-2.272 1.738 7.43 7.43 0 00-3.48 6.213v4.27a2.157 2.157 0 01-2.157 2.156h-8.628a2.157 2.157 0 01-2.157-2.157v-4.358a7.256 7.256 0 00-3.421-6.087C17.645 37.651 15.07 26.367 20.44 17.82a18.28 18.28 0 0115.413-8.555c-.016.038-.03.078-.042.118-.04.283.034.57.206.799l2.542 3.39c.268.347.294.823.065 1.197-.22.376-.647.581-1.079.519l-4.195-.6a1.079 1.079 0 00-1.221.914v.002l-.916 6.405c-.084.59.325 1.136.915 1.22v.001l4.196.6a1.079 1.079 0 01.495 1.93l-3.39 2.542a1.079 1.079 0 00-.215 1.51l3.883 5.177a1.078 1.078 0 001.51.216l3.39-2.542a1.078 1.078 0 011.714 1.015l-.598 4.196a1.077 1.077 0 00.914 1.22l6.407.916a1.079 1.079 0 001.22-.916l.6-4.195a1.079 1.079 0 011.93-.495l2.543 3.39a1.078 1.078 0 001.51.215l5.177-3.882a1.079 1.079 0 00.216-1.51l-2.542-3.39a1.06 1.06 0 01-.065-1.197 1.047 1.047 0 011.079-.518l4.195.598a1.079 1.079 0 001.221-.914l.915-6.407a1.079 1.079 0 00-.915-1.22zM31.771 57.783H40.4v2.157h-8.628v-2.157zm0 4.315H40.4v1.078a2.157 2.157 0 01-2.157 2.157H33.93a2.157 2.157 0 01-2.157-2.157v-1.078zm-8.586-18.6c.588.482 1.204.93 1.843 1.343a5.264 5.264 0 012.173 2.76l-2.314 2.309-2.24-1.544a2.157 2.157 0 00-3.334 1.332l-.566 2.693h-2.563l-.565-2.69a2.157 2.157 0 00-3.335-1.331l-2.242 1.54-1.965-1.96 1.544-2.24a2.157 2.157 0 00-1.331-3.336l-2.69-.566v-2.563l2.69-.566a2.157 2.157 0 001.332-3.33l-1.545-2.245 1.965-1.96 2.243 1.544a2.157 2.157 0 003.334-1.333l.188-.898c.173 1.243.46 2.467.855 3.658a6.471 6.471 0 106.523 9.383zm-1.675-1.52a4.308 4.308 0 11-4.045-5.766h.04a20.426 20.426 0 004.005 5.766zM65.53 25.82l-3.129-.447a3.236 3.236 0 00-3.045 5.145l1.895 2.527-3.452 2.588-1.896-2.526a3.236 3.236 0 00-5.792 1.483l-.436 3.132-4.27-.61.446-3.128a3.235 3.235 0 00-5.144-3.047l-2.527 1.895-2.589-3.451 2.526-1.896a3.236 3.236 0 00-1.483-5.792l-3.128-.446.61-4.27 3.128.446a3.236 3.236 0 003.047-5.145l-1.9-2.528 3.451-2.588 1.896 2.527a3.235 3.235 0 005.792-1.483l.447-3.128 4.27.61-.447 3.127a3.236 3.236 0 005.145 3.046l2.527-1.895 2.588 3.451-2.527 1.896a3.236 3.236 0 001.483 5.792l3.128.447-.614 4.269z"/><path d="M49.822 12.77a8.628 8.628 0 108.629 8.628 8.638 8.638 0 00-8.629-8.629zm0 15.099a6.471 6.471 0 116.472-6.471 6.479 6.479 0 01-6.471 6.471zM37.164 50.234h-2.157v3.235h2.157v-3.235zm-5.796-10.593c-6.658-2.6-9.947-10.106-7.346-16.764a12.944 12.944 0 015.161-6.244l-1.153-1.825c-7.056 4.445-9.172 13.768-4.727 20.824a15.1 15.1 0 007.282 6.017 6.885 6.885 0 014.422 6.428h2.157a9.024 9.024 0 00-5.796-8.436zm32.76 3.043h-7.55v2.157h7.55v-2.157zm-7.938 5.642l-1.38 1.657 6.471 5.392 1.381-1.657-6.472-5.392zm-3.926 2.986h-2.157v7.55h2.157v-7.55zm-39.09-32.325l-8.628 2.157.523 2.092 8.628-2.157-.523-2.092zM7.591 8.373l-1.253 1.754 7.55 5.392 1.252-1.754-7.549-5.392zm10.078-5.864l-2.09.534 2.206 8.628 2.09-.534-2.206-8.628z"/></svg>