<svg viewBox="0 0 71 70" xmlns="http://www.w3.org/2000/svg" fill="#3863a6"><path d="M23.338 41.265c.471.712.72 1.534.72 2.38a4.327 4.327 0 01-4.323 4.323 4.296 4.296 0 01-2.38-.72l-1.193 1.803a6.456 6.456 0 003.573 1.078 6.49 6.49 0 006.484-6.484 6.462 6.462 0 00-1.079-3.574l-1.802 1.194zm-3.603-1.943c.846 0 1.67.25 2.379.72l1.194-1.802a6.45 6.45 0 00-3.573-1.079 6.49 6.49 0 00-6.484 6.484c0 1.272.373 2.507 1.079 3.574l1.802-1.193a4.301 4.301 0 01-.72-2.38 4.327 4.327 0 014.323-4.324zm21.613 7.565v6.484h4.322V51.21h-2.16v-4.323h-2.162z"/><path d="M42.429 40.403a11.91 11.91 0 00-7.523 2.684l1.37 1.674a9.73 9.73 0 015.072-2.128v2.093h2.161v-2.098a9.739 9.739 0 018.581 8.582h-2.097v2.16h2.093a9.734 9.734 0 01-2.128 5.073l1.672 1.37a11.911 11.911 0 002.686-7.523c0-6.554-5.333-11.887-11.887-11.887zm1.081 21.545v-2.093h-2.162v2.097a9.739 9.739 0 01-8.581-8.581h2.097V51.21h-2.093a9.733 9.733 0 012.128-5.073l-1.672-1.37a11.912 11.912 0 00-2.685 7.523c0 6.554 5.333 11.887 11.887 11.887a11.91 11.91 0 007.522-2.684l-1.37-1.673a9.727 9.727 0 01-5.072 2.128z"/><path d="M62.961 51.21H60.8V20.952h-6.484v20.355a16.302 16.302 0 00-2.162-1.954V26.355h-6.483v10.052a16.262 16.262 0 00-2.162-.272v-4.377h-6.483v5.268c-1.088.386-2.12.884-3.088 1.482a14.947 14.947 0 00-.747-1.757l1.71-2.393-5.879-5.88-2.393 1.71a15.118 15.118 0 00-2.253-.93l-.482-2.903h-8.316l-.483 2.904c-.778.25-1.531.56-2.252.929l-2.394-1.71-5.878 5.88L6.28 36.75c-.37.72-.68 1.473-.93 2.252l-2.905.485v8.315l2.904.483c.25.78.561 1.533.93 2.253L4.57 52.93l5.878 5.88 2.394-1.71c.72.369 1.474.68 2.252.93l.483 2.904h8.316l.482-2.903a15.04 15.04 0 002.252-.93l.433.31C29.21 63.843 35.282 68.5 42.429 68.5c8.574 0 15.595-6.694 16.154-15.129h10.862V12.306H62.96V51.21zm-6.484-28.097h2.161V51.21h-.054a16.085 16.085 0 00-2.107-6.972V23.113zm-8.645 5.403h2.161v9.45a16.079 16.079 0 00-2.161-.939v-8.51zm-8.645 5.403h2.161v2.217c-.733.049-1.458.128-2.161.272V33.92zM26.17 54.893a12.9 12.9 0 01-3.033 1.252l-.67.181-.407 2.448h-4.652L17 56.326l-.669-.181a12.876 12.876 0 01-3.032-1.252l-.602-.345-2.015 1.44-3.29-3.29 1.44-2.017-.345-.601a12.84 12.84 0 01-1.253-3.032l-.18-.669-2.448-.407v-4.653l2.448-.408.181-.669a12.871 12.871 0 011.253-3.031l.345-.602-1.44-2.017 3.29-3.29 2.015 1.44.602-.344a12.861 12.861 0 013.032-1.253l.67-.181.408-2.448h4.652l.408 2.448.67.181c1.067.29 2.087.711 3.032 1.253l.602.345 2.015-1.44 3.29 3.289-1.44 2.017.345.602c.466.813.825 1.693 1.107 2.605a16.414 16.414 0 00-1.758 1.72c-.984-4.952-5.36-8.697-10.598-8.697-5.959 0-10.806 4.847-10.806 10.806 0 5.96 4.847 10.807 10.806 10.807 2.36 0 4.63-.799 6.485-2.19l-.001.028c0 .838.083 1.654.206 2.457l-.255.146zm2.182-10.611a16.125 16.125 0 00-1.775 4.631 8.677 8.677 0 01-6.843 3.377c-4.767 0-8.645-3.878-8.645-8.645 0-4.767 3.878-8.645 8.645-8.645 4.767 0 8.645 3.878 8.645 8.645 0 .215-.012.426-.027.637zM42.43 66.339c-7.746 0-14.049-6.303-14.049-14.049 0-7.746 6.303-14.048 14.049-14.048 7.746 0 14.048 6.302 14.048 14.048S50.175 66.34 42.43 66.34zm22.693-51.871h2.162V51.21h-2.162V14.468z"/><path d="M62.961 1.5v2.161h2.322l-7.645 6.117-3.322-3.322-5.095 5.095a3.19 3.19 0 00-1.39-.325 3.246 3.246 0 00-3.241 3.242c0 .559.156 1.077.405 1.536l-5.648 6.277a3.225 3.225 0 00-1.24-.249c-.021 0-.04.006-.06.007L33.7 10.45a3.22 3.22 0 001.163-2.466 3.246 3.246 0 00-3.242-3.242 3.246 3.246 0 00-3.242 3.242c0 .233.027.46.075.68l-8.86 5.451a3.208 3.208 0 00-2.021-.728 3.238 3.238 0 00-3.043 2.161h-5.8a3.238 3.238 0 00-3.043-2.16 3.246 3.246 0 00-3.242 3.241 3.246 3.246 0 003.242 3.242A3.238 3.238 0 008.73 17.71h5.802a3.238 3.238 0 003.043 2.161 3.246 3.246 0 003.242-3.242c0-.233-.027-.46-.075-.68l8.86-5.451a3.203 3.203 0 002.02.728c.02 0 .04-.006.06-.007l4.345 11.588a3.223 3.223 0 00-1.163 2.467 3.246 3.246 0 003.242 3.242 3.246 3.246 0 003.242-3.242c0-.559-.155-1.077-.405-1.536l5.648-6.277c.383.159.8.249 1.24.249a3.246 3.246 0 003.243-3.242 3.2 3.2 0 00-.325-1.39l3.567-3.566 3.161 3.162 9.807-7.844v3.154h2.16V1.5h-6.483zM5.687 17.71a1.082 1.082 0 010-2.161 1.081 1.081 0 010 2.16zm11.887 0a1.082 1.082 0 010-2.161 1.081 1.081 0 010 2.16zm12.968-9.726a1.081 1.081 0 012.16 0 1.08 1.08 0 01-2.16 0zm7.564 18.37a1.081 1.081 0 010-2.16 1.081 1.081 0 010 2.16zm9.726-10.806a1.081 1.081 0 010-2.16 1.081 1.081 0 010 2.16z"/></svg>