<svg viewBox="0 0 71 71" xmlns="http://www.w3.org/2000/svg" fill="#3863a6"><path d="M34.77 58.059c-.658 0-1.191.525-1.191 1.172 0 .646.533 1.171 1.191 1.171s1.191-.525 1.191-1.172c0-.646-.533-1.171-1.191-1.171z"/><path d="M15.707 65.09H41.92c3.284 0 5.957-2.629 5.957-5.86V10.95c0-3.232-2.673-5.86-5.957-5.86H15.708c-3.285 0-5.958 2.628-5.958 5.86v48.28c0 3.231 2.673 5.86 5.957 5.86zm29.786-52.97v41.25h-33.36V12.12h33.36zm-3.575 50.625h-26.21c-1.971 0-3.575-1.577-3.575-3.516v-3.515h33.36v3.515c0 1.94-1.604 3.516-3.575 3.516zM15.709 7.434h26.21c1.553 0 2.878.98 3.37 2.343h-32.95a3.577 3.577 0 013.37-2.343z"/><path d="M30.004 58.059h-7.148c-.658 0-1.191.524-1.191 1.172a1.18 1.18 0 001.191 1.171h7.148c.659 0 1.192-.524 1.192-1.172 0-.647-.534-1.171-1.192-1.171zm26.337 6.383c.202.397.614.648 1.066.648.451 0 .864-.251 1.066-.648l3.574-7.031c.082-.163.125-.343.125-.524V10.949c0-1.938-1.603-3.515-3.574-3.515V6.262c0-.648-.533-1.172-1.191-1.172s-1.192.524-1.192 1.172v1.172c-1.97 0-3.574 1.577-3.574 3.515v45.938c0 .181.043.36.126.524l3.574 7.031zm3.449-11.07h-4.766V16.808h4.766V53.37zm-2.383 7.926l-2.383-4.688v-.895h4.766v.895l-2.383 4.688zm-1.192-51.52h2.383c.657 0 1.192.525 1.192 1.171v3.516h-4.766v-3.516c0-.646.534-1.172 1.191-1.172zM15.707 45.637h16.68c.658 0 1.192-.525 1.192-1.172V38.54c5.353-.585 9.53-5.062 9.53-10.481 0-5.816-4.81-10.547-10.722-10.547-5.51 0-10.061 4.109-10.656 9.375h-6.024a1.18 1.18 0 00-1.19 1.172v16.406c0 .647.533 1.172 1.19 1.172zm15.489-9.46c-3.647-.516-6.538-3.36-7.062-6.947h7.062v6.947zm1.191-16.322c4.599 0 8.34 3.68 8.34 8.204 0 4.125-3.112 7.547-7.148 8.118v-8.118c0-.648-.534-1.172-1.192-1.172h-8.253c.58-3.97 4.06-7.032 8.253-7.032zM16.9 29.23h4.832c.551 4.882 4.502 8.768 9.465 9.31v4.753H16.899V29.23z"/></svg>