<svg viewBox="0 0 71 71" xmlns="http://www.w3.org/2000/svg" fill="#3863a6"><path d="M62.003 35.114h-2.258c0 13.073-10.637 23.71-23.71 23.71s-23.71-10.637-23.71-23.71c0-12.08 9.089-22.061 20.785-23.51l-2.39 2.39 1.597 1.595 5.315-5.314-5.315-5.314-1.596 1.596 2.719 2.719c-13.105 1.306-23.373 12.395-23.373 25.838 0 14.32 11.648 25.967 25.968 25.967s25.968-11.648 25.968-25.967zM28.099 1.006l2.213-.441.441 2.214-2.213.44-.441-2.213zM21.598 3.21l2.086-.865.864 2.086-2.085.865-.865-2.086zM15.65 6.64l1.877-1.254 1.255 1.877-1.877 1.254-1.254-1.877zm-5.162 4.524l1.597-1.597 1.597 1.597-1.597 1.597-1.597-1.597z"/><path d="M32.648 20.436v1.21c-3.825.548-6.774 3.847-6.774 7.822v1.13c0 4.357 3.546 7.903 7.903 7.903h4.516c.623 0 1.13.506 1.13 1.129v1.129a1.13 1.13 0 01-1.13 1.129h-4.516a1.13 1.13 0 01-1.129-1.13V39.63h-6.774v1.129c0 3.975 2.949 7.273 6.774 7.823v1.209a3.391 3.391 0 003.387 3.387 3.391 3.391 0 003.387-3.387v-1.209c3.826-.549 6.774-3.848 6.774-7.823v-1.13c0-4.356-3.546-7.902-7.903-7.902h-4.516a1.13 1.13 0 01-1.129-1.13v-1.129a1.13 1.13 0 011.129-1.129h4.516c.623 0 1.13.507 1.13 1.13v1.128h6.773v-1.129c0-3.975-2.948-7.273-6.774-7.822v-1.21a3.392 3.392 0 00-3.387-3.387 3.392 3.392 0 00-3.387 3.387zm4.516 0v3.387h1.13a5.654 5.654 0 015.53 4.516h-2.337a3.394 3.394 0 00-3.194-2.258h-4.516a3.392 3.392 0 00-3.387 3.387v1.13a3.391 3.391 0 003.387 3.387h4.516a5.652 5.652 0 015.645 5.645v1.129a5.651 5.651 0 01-5.645 5.645h-1.129v3.387a1.13 1.13 0 01-2.258 0v-3.387h-1.129a5.653 5.653 0 01-5.531-4.516h2.337a3.393 3.393 0 003.194 2.258h4.516a3.391 3.391 0 003.387-3.387v-1.13a3.392 3.392 0 00-3.387-3.386h-4.516a5.651 5.651 0 01-5.645-5.646v-1.129a5.652 5.652 0 015.645-5.645h1.129v-3.387a1.13 1.13 0 012.258 0zm-26.469-6.058l-1.747-1.432a35.068 35.068 0 00-7.913 22.168A34.941 34.941 0 009.95 58.448l1.682-1.507a32.683 32.683 0 01-8.338-21.827 32.802 32.802 0 017.402-20.736zm30.621 53.066l2.214-.44.44 2.213-2.213.44-.44-2.213zm6.204-1.649l2.086-.864.863 2.086-2.085.864-.864-2.086zm5.764-2.832l1.876-1.254 1.255 1.877-1.877 1.255-1.254-1.878zm5.104-3.898l1.597-1.597 1.596 1.597-1.596 1.597-1.597-1.597zm3.733-47.285l-1.681 1.507a32.682 32.682 0 018.337 21.827 32.8 32.8 0 01-7.402 20.737l1.747 1.431a35.069 35.069 0 007.913-22.168 34.94 34.94 0 00-8.914-23.334z"/></svg>