<svg viewBox="0 0 71 71" xmlns="http://www.w3.org/2000/svg" fill="#3863a6"><path d="M50.352 30.21l-4.644-7.081a.567.567 0 00-.474-.256H26.677a.566.566 0 00-.473.255l-4.651 7.06a.564.564 0 00.032.706l2.358 2.692a.566.566 0 00.852-.746l-1.535-1.753h7.618l3.828 13.07-4.325-4.94a.566.566 0 00-.852.747l5.991 6.841a.566.566 0 00.853 0l6.379-7.286a.566.566 0 10-.852-.746l-4.713 5.383 3.828-13.07h7.615l-3.522 4.024a.566.566 0 10.852.746l4.345-4.962a.566.566 0 00.047-.684zm-27.289-.256l3.613-5.484 3.596 5.484h-7.209zm4.663-5.948h7.172l-3.586 5.468-3.586-5.468zm8.22.466l3.596 5.482h-7.19l3.595-5.482zm0 19.889L32.06 31.087h7.775l-3.888 13.274zm4.645-14.873l-3.596-5.482h7.19l-3.595 5.482zm1.048.466l3.595-5.482 3.596 5.482h-7.19z"/><path d="M30.348 36.522a2.653 2.653 0 01-2.65-2.65.566.566 0 10-1.132 0 2.653 2.653 0 01-2.65 2.65.566.566 0 000 1.133 2.653 2.653 0 012.65 2.65.566.566 0 001.132 0 2.653 2.653 0 012.65-2.65.566.566 0 000-1.133zm-3.216 1.794a3.813 3.813 0 00-1.227-1.227c.498-.309.918-.73 1.227-1.227.309.497.73.918 1.227 1.227-.497.309-.918.73-1.227 1.227zm22.747-18.049a1.701 1.701 0 01-1.7-1.7.566.566 0 00-1.132 0c0 .938-.762 1.7-1.7 1.7a.566.566 0 000 1.133 1.7 1.7 0 011.7 1.699.566.566 0 101.133 0c0-.937.762-1.7 1.699-1.7a.566.566 0 000-1.132zM47.613 21.4a2.855 2.855 0 00-.568-.568 2.83 2.83 0 00.568-.568c.162.215.353.407.568.568a2.858 2.858 0 00-.568.568zm-3.354 15.595a.568.568 0 00-.801 0 .57.57 0 00.4.967.57.57 0 00.567-.566.57.57 0 00-.166-.4z"/><path d="M22.84 65.09h26.21c3.285 0 5.957-2.629 5.957-5.86V10.95c0-3.232-2.672-5.86-5.957-5.86H22.84c-3.285 0-5.958 2.628-5.958 5.86v48.28c0 3.231 2.673 5.86 5.957 5.86zm29.783-52.97v41.25H19.265V12.12h33.36zM49.05 62.746H22.84c-1.972 0-3.575-1.577-3.575-3.516v-3.515h33.36v3.515c0 1.94-1.604 3.516-3.575 3.516zM22.84 7.434h26.21c1.553 0 2.878.98 3.37 2.343H19.47a3.577 3.577 0 013.37-2.343z"/></svg>