<svg viewBox="0 0 71 71" xmlns="http://www.w3.org/2000/svg" fill="#3863a6"><path d="M36.96 38.597a1.08 1.08 0 00-.388-.014 2.573 2.573 0 01-2.276-2.551 1.132 1.132 0 00-2.263 0 4.842 4.842 0 003.56 4.662v1.132a1.132 1.132 0 102.263 0v-1.064a4.833 4.833 0 00-.99-9.563 2.57 2.57 0 112.57-2.57 1.132 1.132 0 002.263 0 4.842 4.842 0 00-3.843-4.73v-1.031a1.132 1.132 0 00-2.263 0v1.1a4.833 4.833 0 001.273 9.494 2.568 2.568 0 01.094 5.135z"/><path d="M20.454 32.418c0 9.064 7.348 16.412 16.412 16.412s16.412-7.348 16.412-16.412c0-9.065-7.348-16.412-16.412-16.412-9.06.01-16.402 7.352-16.412 16.412zm16.412-14.149c7.814 0 14.148 6.334 14.148 14.149 0 7.814-6.334 14.148-14.148 14.148s-14.149-6.334-14.149-14.148c.01-7.81 6.338-14.14 14.149-14.149z"/><path d="M58.858 51.62l-8.866 4.19a7.221 7.221 0 00-6.157-3.8l-8.184-.225a8.645 8.645 0 01-3.72-.96l-.833-.432a14.69 14.69 0 00-13.606.015l.052-1.887a1.132 1.132 0 00-1.1-1.163l-8.976-.247a1.131 1.131 0 00-1.162 1.1l-.542 19.695a1.132 1.132 0 001.1 1.163l8.975.247h.031c.614 0 1.115-.488 1.132-1.1l.026-.943 2.332-1.248a4 4 0 012.984-.327l13.923 3.908.074.018a15.1 15.1 0 009.368-1.061.91.91 0 00.14-.078l20.188-13.057c.503-.326.665-.986.37-1.508a5.717 5.717 0 00-7.55-2.3zm-50.8 15.218l.48-17.433 6.712.185-.48 17.433-6.712-.185zm36.632-.297a12.832 12.832 0 01-7.848.876L22.957 63.52a6.257 6.257 0 00-4.666.51l-1.191.639.319-11.59a12.44 12.44 0 0112.638-.675l.833.432a10.93 10.93 0 004.699 1.213l8.185.225a4.964 4.964 0 014.718 3.956L36.3 57.892a1.133 1.133 0 00-.062 2.264l13.454.37h.032c.612 0 1.114-.489 1.13-1.101a7.182 7.182 0 00-.11-1.468l9.095-4.297a3.458 3.458 0 013.937.535L44.69 66.54zm-6.692-53.718V2.071a1.132 1.132 0 00-2.264 0v10.752a1.132 1.132 0 002.264 0zm8.488 0V7.73a1.132 1.132 0 00-2.263 0v5.093a1.132 1.132 0 002.263 0zm-16.976 0V7.73a1.132 1.132 0 00-2.264 0v5.093a1.132 1.132 0 002.263 0z"/></svg>