<svg viewBox="0 0 71 71" xmlns="http://www.w3.org/2000/svg" fill="#3863a6"><path d="M69.827 52.94L56.044 41.913v6.652h-9.856a21.79 21.79 0 003.779-7.991l3.89-1.007v-8.26l-3.885-.984a21.663 21.663 0 00-2.62-6.298l2.059-3.453-5.845-5.844-3.453 2.057a21.678 21.678 0 00-6.297-2.619l-.983-3.883h-8.266l-.983 3.885a21.648 21.648 0 00-6.297 2.62l-3.453-2.058-5.845 5.844 2.059 3.453a21.682 21.682 0 00-2.62 6.298l-3.884.982v8.264l3.888.992a21.66 21.66 0 003.794 8.002h-9.87v8.75h54.688v6.65L69.827 52.94zM3.544 55.127v-4.375h9.584a22.11 22.11 0 006.108 4.375H3.544zm25.157 0c-9.292 0-17.399-6.594-19.278-15.679l-.139-.67-3.552-.907v-4.862l3.55-.898.14-.671a19.5 19.5 0 012.824-6.795l.377-.572-1.882-3.156 3.437-3.437 3.156 1.882.573-.376a19.51 19.51 0 016.794-2.825l.671-.139.898-3.551h4.86l.898 3.55.671.139a19.51 19.51 0 016.795 2.825l.572.376 3.156-1.882 3.437 3.437-1.881 3.156.376.572a19.51 19.51 0 012.825 6.795l.139.671 3.551.9v4.863l-3.555.92-.138.666a19.627 19.627 0 01-4.616 9.104h-6.812c4.463-2.677 7.465-7.55 7.465-13.123 0-8.444-6.869-15.313-15.312-15.313-8.444 0-15.313 6.869-15.313 15.313 0 8.443 6.869 15.312 15.313 15.312h29.53v-4.287l8.094 6.474-8.093 6.474v-4.286H28.7zm0-6.563c-7.238 0-13.125-5.887-13.125-13.124 0-7.238 5.887-13.125 13.125-13.125 7.237 0 13.125 5.887 13.125 13.125 0 7.237-5.888 13.125-13.125 13.125z"/><path d="M20.575 32.183l-2.03-.811a11 11 0 00-.646 2.337l2.161.344a8.72 8.72 0 01.515-1.87zm-.607 3.811l-2.183.134c.05.81.19 1.615.42 2.391l2.098-.614a8.75 8.75 0 01-.335-1.911zm-.827 4.763c.395.708.869 1.372 1.408 1.974l1.63-1.459a8.739 8.739 0 01-1.127-1.58l-1.91 1.065zm12.841-5.317a3.277 3.277 0 00-2.188-3.08v-7.858h-2.187v7.857a3.277 3.277 0 00-2.188 3.08 3.285 3.285 0 003.282 3.282c.505 0 .977-.124 1.405-.33l3.29 3.29 1.547-1.546-3.29-3.29c.205-.428.329-.9.329-1.405zM28.7 36.532a1.096 1.096 0 01-1.094-1.093 1.095 1.095 0 111.094 1.093z"/></svg>