<svg viewBox="0 0 71 71" xmlns="http://www.w3.org/2000/svg" fill="#3863a6"><path d="M26.208 14.745l-1.38-1.187v-.57l1.38-1.187a1.17 1.17 0 00.38-1.124 12.552 12.552 0 00-.909-2.707 1.167 1.167 0 00-.952-.67l-1.797-.165a10.885 10.885 0 00-.38-.513l.389-1.694a1.168 1.168 0 00-.359-1.13 13.17 13.17 0 00-2.346-1.68 1.167 1.167 0 00-1.155.01l-1.547.898a10.988 10.988 0 00-.644-.201l-.715-1.677A1.167 1.167 0 0015.1.439h-2.641c-.467 0-.89.28-1.073.71l-.714 1.676c-.223.062-.437.129-.645.2L8.48 2.129a1.173 1.173 0 00-1.156-.01 13.219 13.219 0 00-2.346 1.68 1.167 1.167 0 00-.359 1.13l.388 1.693c-.13.167-.257.339-.379.514L2.832 7.3a1.166 1.166 0 00-.952.671c-.405.866-.71 1.774-.91 2.708-.086.416.06.845.381 1.123l1.38 1.187v.57l-1.38 1.187a1.169 1.169 0 00-.38 1.123c.199.934.504 1.842.909 2.707.175.378.538.634.952.671l1.797.164c.122.176.249.347.38.513l-.389 1.694c-.095.414.043.847.36 1.13a13.07 13.07 0 002.346 1.679c.359.2.798.197 1.153-.01l1.548-.896c.208.072.422.139.644.2l.715 1.678c.183.43.605.708 1.073.708h2.64c.468 0 .89-.279 1.074-.709l.714-1.677c.222-.061.436-.128.645-.2l1.546.898c.397.23.892.205 1.265-.06l2.137-1.53c.383-.275.564-.752.458-1.21l-.388-1.694c.13-.166.257-.338.38-.514l1.797-.164c.414-.037.777-.293.952-.67.405-.866.71-1.774.909-2.708a1.168 1.168 0 00-.38-1.123zm-3.308.231l1.242 1.069c-.09.313-.196.627-.32.94l-1.665.152a1.168 1.168 0 00-.886.55c-.254.411-.541.8-.86 1.163a1.166 1.166 0 00-.263 1.033l.343 1.498-.893.64-1.374-.798a1.174 1.174 0 00-1.033-.068 8.7 8.7 0 01-1.409.44 1.167 1.167 0 00-.814.68l-.639 1.498h-1.1l-.638-1.498a1.161 1.161 0 00-.814-.68 8.733 8.733 0 01-1.409-.44 1.165 1.165 0 00-1.032.068l-1.432.83a10.65 10.65 0 01-.85-.608l.357-1.562a1.168 1.168 0 00-.261-1.032 8.584 8.584 0 01-.861-1.164 1.17 1.17 0 00-.887-.55l-1.665-.151c-.124-.314-.23-.628-.32-.941l1.242-1.069a1.17 1.17 0 00.405-.884v-1.638c0-.34-.148-.663-.405-.885L3.417 10.5a10.4 10.4 0 01.32-.94l1.665-.15c.365-.035.694-.238.886-.55.254-.411.542-.8.86-1.163.25-.282.348-.667.263-1.034L7.054 5.1c.275-.217.558-.42.85-.608l1.432.83c.315.181.696.207 1.032.069a8.701 8.701 0 011.41-.44c.364-.083.666-.336.813-.68l.639-1.498h1.1l.638 1.498c.146.345.449.598.814.68.481.107.952.254 1.409.44a1.17 1.17 0 001.033-.068l1.43-.831c.292.188.576.39.852.608l-.358 1.562c-.084.367.013.75.261 1.033.32.363.608.752.862 1.164.193.312.52.515.886.55l1.666.15c.123.315.23.629.32.942L22.9 11.57a1.169 1.169 0 00-.405.883v1.639c0 .34.148.662.405.884z"/><path d="M13.778 7.44a5.833 5.833 0 105.834 5.833 5.84 5.84 0 00-5.834-5.834zm0 9.333a3.5 3.5 0 110-7 3.5 3.5 0 010 7zm.002 42H4.444c-.644 0-1.166.522-1.166 1.166v9.334c0 .644.522 1.166 1.166 1.166h9.334c.644 0 1.166-.522 1.166-1.166v-9.334c0-.644-.522-1.166-1.166-1.166zm-1.168 9.333h-7v-7h7v7zM31.28 55.273h-9.336c-.644 0-1.166.522-1.166 1.166v12.834c0 .644.521 1.166 1.166 1.166h9.334c.644 0 1.166-.522 1.166-1.166V56.439c0-.644-.522-1.166-1.166-1.166zm-1.168 12.833h-7v-10.5h7v10.5zm18.668-17.5h-9.336c-.644 0-1.166.522-1.166 1.166v17.5c0 .645.521 1.167 1.166 1.167h9.334c.644 0 1.166-.521 1.166-1.165V51.772c0-.644-.522-1.167-1.166-1.167zm-1.168 17.5h-7V52.94h7v15.166zm18.668-28h-9.336c-.644 0-1.166.522-1.166 1.166v28c0 .645.521 1.167 1.166 1.167h9.334c.644 0 1.166-.521 1.166-1.166v-28c0-.644-.522-1.167-1.166-1.167zm-1.168 28h-7V42.44h7v25.666zM40.954 26.157a.83.83 0 00-.021-.006l-8.167-2.334-.641 2.245 5.717 1.633L2.638 50.797l1.28 1.951 34.626-22.723-1.919 6.238 2.23.686 2.872-9.333a1.167 1.167 0 00-.773-1.46zm23.806-14.48a1.166 1.166 0 00-.639-.318l-5.027-.77-2.26-4.812a1.167 1.167 0 00-2.112 0l-2.259 4.813-5.027.769a1.167 1.167 0 00-.66 1.967l3.673 3.764-.87 5.328a1.166 1.166 0 001.717 1.209l4.482-2.478 4.483 2.478a1.166 1.166 0 001.716-1.209l-.869-5.328 3.672-3.764c.45-.46.441-1.2-.02-1.65zm-5.733 4.205a1.165 1.165 0 00-.316 1.002l.577 3.54-2.945-1.629a1.166 1.166 0 00-1.129 0l-2.944 1.628.577-3.538a1.165 1.165 0 00-.317-1.003l-2.498-2.56 3.399-.52c.385-.058.715-.305.88-.657l1.467-3.127 1.468 3.127c.165.352.495.599.88.657l3.399.52-2.498 2.56zm-1.009 12.364c-.733.129-1.477.194-2.222.193h-.018a12.85 12.85 0 01-2.216-.191l-.4 2.3c.873.124 1.753.2 2.635.225.88 0 1.76-.077 2.627-.23l-.406-2.297zM58.365.66l-.396 2.299c1.475.253 2.893.764 4.19 1.51l1.16-2.024A15.02 15.02 0 0058.366.659zm-5.263.013c-1.741.31-3.415.925-4.943 1.816l1.174 2.017a12.74 12.74 0 014.18-1.536l-.41-2.297zM65.613 23.85a12.875 12.875 0 01-3.412 2.868l1.17 2.019a15.189 15.189 0 004.029-3.385l-1.787-1.502zm4.817-8.287l-1.818.043a12.804 12.804 0 01-.77 4.39l2.194.798a15.17 15.17 0 00.909-5.222l-.515-.01zm-3.067-9.746l-1.781 1.506a12.78 12.78 0 012.243 3.848l2.19-.807a15.092 15.092 0 00-2.652-4.547zm-23.226.066a15.114 15.114 0 00-2.625 4.565l2.194.793a12.78 12.78 0 012.222-3.86l-1.791-1.498zm1.822 17.985l-1.784 1.504a15.189 15.189 0 004.035 3.38l1.166-2.021a12.858 12.858 0 01-3.417-2.863zm-3.013-8.236l-2.334.005a15.13 15.13 0 00.92 5.184l2.191-.802a12.785 12.785 0 01-.777-4.387z"/></svg>