<?xml version="1.0" standalone="no"?>
<!DOCTYPE svg PUBLIC "-//W3C//DTD SVG 20010904//EN"
 "http://www.w3.org/TR/2001/REC-SVG-20010904/DTD/svg10.dtd">
<svg version="1.0" xmlns="http://www.w3.org/2000/svg"
 width="260.000000pt" height="260.000000pt" viewBox="0 0 260.000000 260.000000"
 preserveAspectRatio="xMidYMid meet">
<metadata>
Created by potrace 1.11, written by Peter Selinger 2001-2013
</metadata>
<g transform="translate(0.000000,260.000000) scale(0.100000,-0.100000)"
fill="#000000" stroke="none">
<path d="M442 2584 c-223 -65 -324 -348 -190 -536 28 -39 96 -107 108 -108 3
0 5 -197 4 -438 0 -393 2 -442 17 -490 41 -120 134 -203 263 -232 27 -6 283
-9 655 -9 337 1 614 -1 617 -4 3 -3 5 -48 5 -101 l0 -96 -34 -29 c-34 -31 -85
-113 -93 -153 -30 -146 42 -295 172 -358 69 -34 188 -34 259 -2 63 29 119 83
153 147 22 42 26 63 26 135 1 100 -23 159 -89 223 l-40 40 -1 861 c0 473 -4
879 -8 901 -16 84 -83 175 -161 219 -42 23 -124 46 -165 46 -18 0 -19 -23 -19
-727 0 -401 -1 -736 -1 -746 0 -16 -33 -17 -602 -15 l-603 3 0 405 0 405 24
20 c62 53 103 102 128 153 25 50 28 68 27 147 0 74 -5 100 -25 145 -29 62
-103 142 -158 169 -81 41 -185 50 -269 25z m175 -229 c36 -24 57 -65 57 -110
0 -75 -55 -129 -130 -129 -53 0 -92 26 -118 78 -56 113 83 231 191 161z m1532
-1939 c52 -27 75 -88 56 -146 -9 -28 -52 -69 -75 -71 -90 -9 -146 37 -144 118
2 85 88 137 163 99z"/>
</g>
</svg>
