<svg viewBox="0 0 71 70" xmlns="http://www.w3.org/2000/svg" fill="#3863a6"><path d="M66.533 9.41l-2.991-2.634 2.99-2.633c.466-.41.625-1.05.407-1.63a1.466 1.466 0 00-1.382-.955H53.18v-.532a1.026 1.026 0 10-2.052 0v13.836L42.7 19.437a3.245 3.245 0 00-.333-1.077l-1.187-2.318a3.246 3.246 0 00-4.364-1.408l-.918.47a3.221 3.221 0 00-1.608 1.89 3.219 3.219 0 00.2 2.474l1.188 2.318c.277.541.687.97 1.168 1.27-.63.848-.929 1.892-1.236 2.976l-.222.783a1.025 1.025 0 101.975.558l.22-.781c.45-1.586.727-2.435 1.606-2.912l1.576-.857.194-.099c.065-.033.125-.07.187-.107l11.232-6.1a4.342 4.342 0 01-2.071 3.487l-7.305 4.438-.025.015-2.273 1.38a1.027 1.027 0 00.98 1.8l-1.725 5.215-1.26.517-3.43 1.405.989-3.493a1.027 1.027 0 00-1.975-.558l-1.561 5.52a.984.984 0 00-.037.223l-.409 7.505c-.012.286.049.827-.083 1.107l-4.538 9.545H24.36a3.506 3.506 0 00-3.503 3.503v2.961a3.475 3.475 0 00-1.45-.316h-8.374a3.506 3.506 0 00-3.502 3.503v3.674H5.067a1.026 1.026 0 100 2.052h60.49a1.026 1.026 0 000-2.052h-2.67V41.504a3.506 3.506 0 00-3.501-3.502h-6.207V20.104a6.398 6.398 0 001.03-5.483 1.024 1.024 0 00-1.03-.753v-1.873h12.378c.62 0 1.162-.375 1.381-.955.22-.58.06-1.22-.405-1.63zm-30.289 8.215a1.18 1.18 0 01.59-.694l.919-.47a1.192 1.192 0 011.602.516l1.187 2.319a1.192 1.192 0 01-.395 1.529l-.335.181-.705.362a1.192 1.192 0 01-1.602-.517l-1.188-2.318a1.182 1.182 0 01-.073-.908zm-2.061 37.314a3.482 3.482 0 00-1.126-.3l1.126-1.496v1.796zm4.871-8.267c.493-.59.63-1.281.74-1.838.028-.132.534-2.898.534-2.898s.479.299.529.32c.035.016.06.05.063.09l.558 5.673H38.04l1.014-1.347zm6.067-5.662l-.866 7.004h-.715l-.578-5.869a2.161 2.161 0 00-1.208-1.735l-1.032-.654.687-3.81s2.896 3.44 2.963 3.528c.6.78.804 1.091.749 1.536zm-11.082 4.965a5.563 5.563 0 00.288-1.905l.372-6.844 4.745-1.945-.862 4.778-.007.039-.714 3.95c-.092.41-.174 1.03-.429 1.367L30.5 54.623h-.57l4.11-8.648zM9.582 64.273c0-.8.65-1.45 1.45-1.45h8.374c.8 0 1.45.65 1.45 1.45v3.675H9.583v-3.675zm13.326 0v-6.147c0-.8.65-1.45 1.451-1.45h8.373c.8 0 1.45.65 1.45 1.45v9.822H22.909v-3.675zm37.928-22.769v26.444H49.562v-6.151a1.026 1.026 0 10-2.053 0v6.151H36.235V51.521c0-.8.65-1.45 1.45-1.45h8.374c.8 0 1.45.65 1.45 1.45v5.143a1.026 1.026 0 102.052 0v-15.16c0-.8.651-1.45 1.451-1.45h8.373c.8 0 1.451.65 1.451 1.45zm-9.824-3.502a3.506 3.506 0 00-3.502 3.502v6.83a3.474 3.474 0 00-1.19-.304l.837-6.768c.165-1.319-.508-2.193-1.159-3.039-.069-.09-4.056-4.825-4.056-4.825l2.446-7.396 6.739-4.095v16.095h-.115zm2.167-28.06V3.61h10.853l-2.337 2.058a1.477 1.477 0 000 2.217l2.337 2.058H53.18z"/></svg>