<svg viewBox="0 0 69 69" xmlns="http://www.w3.org/2000/svg" fill="#3863a6"><path d="M65.913 20.048h-3.596a17.293 17.293 0 00-2.07-5.011l2.54-2.539a1.032 1.032 0 000-1.46l-4.381-4.38c-.387-.386-1.074-.386-1.46 0l-2.538 2.54a17.344 17.344 0 00-5.012-2.07V3.532c0-.57-.46-1.032-1.032-1.032h-6.193c-.571 0-1.033.463-1.033 1.032v3.596a17.267 17.267 0 00-5.01 2.07l-2.538-2.54a1.03 1.03 0 00-1.46 0l-4.38 4.38a1.031 1.031 0 000 1.46l2.538 2.539a17.293 17.293 0 00-2.07 5.011h-3.596c-.57 0-1.032.463-1.032 1.033v2.064H8.106a3.1 3.1 0 00-3.097 3.097v29.935H3.977c-.571 0-1.032.463-1.032 1.033v4.129A5.167 5.167 0 008.106 66.5h45.42a5.167 5.167 0 005.16-5.161v-4.13c0-.569-.46-1.032-1.032-1.032h-1.032V41.372l.323.324a1.03 1.03 0 001.46 0l4.38-4.38a1.03 1.03 0 000-1.46l-2.538-2.538a17.293 17.293 0 002.07-5.012h3.596c.57 0 1.032-.462 1.032-1.032v-6.193c0-.57-.461-1.033-1.032-1.033zm-9.29 41.29a3.1 3.1 0 01-3.097 3.098H8.105a3.1 3.1 0 01-3.097-3.097v-3.097h12.387v1.032a3.1 3.1 0 003.097 3.097h20.645a3.1 3.1 0 003.097-3.097v-1.032h12.387v3.097zM19.46 58.243h22.71v1.032c0 .569-.463 1.032-1.033 1.032H20.493c-.57 0-1.032-.463-1.032-1.032v-1.032zm35.097-2.065H7.074V26.242c0-.569.463-1.032 1.032-1.032H23.59v2.064c0 .57.461 1.032 1.032 1.032h3.596a17.293 17.293 0 002.07 5.012l-2.54 2.538a1.031 1.031 0 000 1.46l4.38 4.38c.389.388 1.074.386 1.46 0l2.539-2.538a17.293 17.293 0 005.01 2.07v3.595c0 .57.462 1.032 1.033 1.032h6.193c.57 0 1.032-.463 1.032-1.032v-3.596c1.78-.427 3.46-1.12 5.011-2.07l.152.15v16.87zM64.88 26.242h-3.397c-.495 0-.922.353-1.014.84a15.325 15.325 0 01-2.393 5.795c-.28.41-.229.961.122 1.311l2.398 2.398-2.92 2.92-2.397-2.398a1.035 1.035 0 00-1.31-.123 15.32 15.32 0 01-5.797 2.395 1.03 1.03 0 00-.84 1.013v3.397h-4.13v-3.397c0-.495-.352-.922-.838-1.014a15.323 15.323 0 01-5.797-2.394 1.034 1.034 0 00-1.31.123l-2.397 2.399-2.92-2.92 2.397-2.399c.351-.35.403-.9.123-1.31a15.31 15.31 0 01-2.394-5.797 1.034 1.034 0 00-1.014-.84h-3.398v-4.128h3.398a1.03 1.03 0 001.013-.84 15.325 15.325 0 012.394-5.796c.28-.41.228-.96-.123-1.31l-2.398-2.398 2.92-2.92 2.397 2.397c.352.351.901.403 1.311.124a15.32 15.32 0 015.797-2.395 1.03 1.03 0 00.84-1.013V4.565h4.129v3.397c0 .495.353.922.84 1.013a15.323 15.323 0 015.796 2.395c.41.28.96.228 1.31-.123l2.397-2.399 2.92 2.92-2.398 2.398c-.35.35-.402.902-.122 1.311a15.31 15.31 0 012.393 5.797c.093.486.52.839 1.015.839h3.397v4.129z"/><path d="M45.267 10.758c-7.399 0-13.42 6.02-13.42 13.42 0 7.399 6.021 13.419 13.42 13.419 7.4 0 13.42-6.02 13.42-13.42 0-7.399-6.02-13.419-13.42-13.419zM44.235 35.48v-5.338c0-.433-.27-.819-.675-.969-2.065-.761-3.454-2.814-3.454-5.106 0-1.734.79-3.33 2.064-4.336v4.336c0 .266.104.522.287.715l2.065 2.15c.391.406 1.098.406 1.49 0l2.064-2.15c.185-.193.288-.449.288-.715v-4.336c1.275 1.006 2.065 2.602 2.065 4.336 0 2.292-1.39 4.345-3.455 5.106-.405.15-.674.536-.674.969v5.338c-.341.03-.684.052-1.033.052-.349 0-.691-.021-1.032-.052zm4.129-.387V30.82c2.497-1.227 4.13-3.854 4.13-6.754 0-3.16-1.931-5.994-4.805-7.051a1.033 1.033 0 00-1.39.968v5.667l-1.032 1.074-1.032-1.074v-5.667a1.032 1.032 0 00-1.39-.968c-2.873 1.057-4.804 3.891-4.804 7.051 0 2.9 1.633 5.527 4.13 6.754v4.272c-4.76-1.353-8.259-5.729-8.259-10.916 0-6.26 5.095-11.354 11.355-11.354 6.26 0 11.355 5.094 11.355 11.354 0 5.186-3.5 9.562-8.258 10.916zm2.065 16.955H11.203v-22.71h10.323v-2.064H10.17c-.571 0-1.033.463-1.033 1.032v24.775c0 .57.462 1.032 1.033 1.032h41.29c.571 0 1.032-.463 1.032-1.032v-5.162H50.43v4.13z"/></svg>