<svg viewBox="0 0 71 70" xmlns="http://www.w3.org/2000/svg" fill="#3863a6"><path d="M68.823 14.914c1.17 0 2.122-.951 2.122-2.12V10.6c0-1.17-.952-2.121-2.121-2.121H3.066A2.123 2.123 0 00.945 10.6v2.192c0 1.17.951 2.121 2.121 2.121h.07v41.788H1.97a1.025 1.025 0 000 2.05h32.95v2.502a3.222 3.222 0 00-2.192 3.05 3.22 3.22 0 003.217 3.216 3.221 3.221 0 003.217-3.217c0-1.415-.92-2.62-2.192-3.049v-2.501h32.95a1.025 1.025 0 000-2.051h-1.167V14.914h.07zM35.945 65.47a1.168 1.168 0 01-1.167-1.166 1.168 1.168 0 012.333 0c0 .643-.523 1.166-1.166 1.166zm30.757-8.767H5.187V14.914h55.965a1.025 1.025 0 000-2.05H3.066a.07.07 0 01-.07-.07V10.6a.07.07 0 01.07-.07h65.758a.07.07 0 01.07.07v2.192a.07.07 0 01-.07.07h-3.288a1.025 1.025 0 000 2.051h1.166v41.788z"/><path d="M11.834 37.93h2.191a1.025 1.025 0 100-2.051H12.86v-2.333h8.909v2.333H18.41a1.025 1.025 0 000 2.05h4.384c.567 0 1.026-.459 1.026-1.025V32.52c0-.566-.46-1.025-1.026-1.025H18.34v-2.333h16.51c.566 0 1.025-.46 1.025-1.025V21.56c0-.567-.459-1.026-1.025-1.026H11.834c-.566 0-1.026.46-1.026 1.026v6.576c0 .566.46 1.025 1.026 1.025h4.454v2.333h-4.454c-.566 0-1.026.459-1.026 1.025v4.384c0 .566.46 1.025 1.026 1.025zm1.025-15.344h20.964v4.525H12.86v-4.525zm47.197 11.101H53.48c-.566 0-1.025.459-1.025 1.025v4.384c0 .566.459 1.025 1.025 1.025h2.263v2.333h-5.55c-.567 0-1.026.46-1.026 1.026v6.575c0 .567.459 1.026 1.025 1.026h9.864c.566 0 1.025-.46 1.025-1.026V43.48c0-.567-.459-1.026-1.025-1.026h-2.263v-2.333h2.263c.566 0 1.025-.459 1.025-1.025v-4.384c0-.566-.459-1.025-1.025-1.025zM59.03 49.03h-7.813v-4.525h7.813v4.525zm0-10.96h-4.526v-2.332h4.526v2.333zm.3-18.33l-4.754 4.754-2.563-2.562a1.025 1.025 0 10-1.45 1.45l3.288 3.287a1.022 1.022 0 001.45 0l5.48-5.48a1.025 1.025 0 10-1.45-1.45zm-9.509 7.672a1.025 1.025 0 00-.973-.27l-6.2 1.55a1.025 1.025 0 00.497 1.99l2.608-.653L30.57 45.213a5.514 5.514 0 01-3.925 1.625h-8.43a4.32 4.32 0 00-4.19-3.288 4.318 4.318 0 00-4.313 4.314 4.318 4.318 0 004.314 4.313 4.32 4.32 0 004.189-3.288h8.43c2.03 0 3.94-.79 5.375-2.226l15.184-15.184-.653 2.608a1.025 1.025 0 101.99.498l1.55-6.2a1.025 1.025 0 00-.27-.974zM14.026 50.126a2.265 2.265 0 01-2.263-2.262 2.265 2.265 0 012.263-2.263 2.265 2.265 0 012.262 2.263 2.265 2.265 0 01-2.262 2.262z"/><path d="M35.874 32.52c0-.566-.459-1.025-1.025-1.025h-7.672a1.025 1.025 0 100 2.05h7.672c.566 0 1.025-.458 1.025-1.025zm9.935 11.03H42.52a1.025 1.025 0 000 2.051h3.288a1.025 1.025 0 000-2.05zm-.001 4.384h-7.671a1.025 1.025 0 000 2.05h7.671a1.025 1.025 0 000-2.05zM27.177 35.879a1.025 1.025 0 000 2.05h3.288a1.025 1.025 0 100-2.05h-3.288z"/></svg>