<svg viewBox="0 0 71 71" xmlns="http://www.w3.org/2000/svg" fill="#3863a6"><path d="M22.7 6.179h41.876v2.156H22.7V6.18zm-16.75 0h2.094v2.156H5.951V6.18zm4.188 0h2.094v2.156h-2.094V6.18zm4.188 0h2.093v2.156h-2.093V6.18z"/><path d="M1.763 1.866V57.93h25.602l2.842 6.038a4.519 4.519 0 002.962 2.456v4.444h2.094v-4.313h3.664v-2.156h-4.71a2.37 2.37 0 01-2.126-1.372l-5.13-10.896a1.434 1.434 0 01.479-1.891 1.344 1.344 0 011.853.419l2.934 4.576h1.99v-17.79c0-.595.468-1.078 1.046-1.078.578 0 1.047.483 1.047 1.079v12.398h2.094V45.53h1.047c.578 0 1.047.483 1.047 1.079v5.39h2.093v-4.312h1.047c.578 0 1.047.483 1.047 1.078v5.39h2.094v-4.312h1.047c.578 0 1.047.483 1.047 1.078v9.988l-2.094 4.313v5.645h2.094V65.73l2.093-4.312v-3.489h17.797V1.866h-67zm2.094 10.782H25.84v4.759l6.282 6.468v3.423c-.713.3-1.383.699-1.99 1.186l-3.858-3.977h-7.328l-3.121-3.214c.385-.657.59-1.409.593-2.177 0-2.381-1.875-4.312-4.187-4.312-2.313 0-4.188 1.93-4.188 4.312 0 2.382 1.875 4.313 4.188 4.313a4.04 4.04 0 002.114-.611l3.734 3.845h7.328l3.245 3.343a8.699 8.699 0 00-1.151 2.048H17.9l-4.188-4.313H3.857V12.648zm24.078 3.866v-3.866h2.094v6.022l-2.094-2.156zm-13.61 2.602c0 1.191-.937 2.157-2.093 2.157s-2.094-.966-2.094-2.157c0-1.19.938-2.156 2.094-2.156s2.094.966 2.094 2.156zM3.858 29.898h8.988l4.188 4.312h9.927a8.93 8.93 0 00-.072 1.078 8.712 8.712 0 00.647 3.235H15.81l-4.187-4.313H3.857v-4.312zm28.266 21.266l-1.088-1.695c-.967-1.502-2.869-2.026-4.435-1.222a3.503 3.503 0 00-1.763 2.15c-.278.91-.18 1.9.271 2.734l1.24 2.642H3.858V36.366h6.895l4.187 4.313h13.825c.278.356.583.688.912.995l-1.127 1.161H14.94l-2.687 2.768a4.04 4.04 0 00-2.114-.611c-2.312 0-4.187 1.93-4.187 4.312 0 2.381 1.875 4.313 4.187 4.313 2.313 0 4.188-1.931 4.188-4.313a4.35 4.35 0 00-.594-2.177l2.074-2.136h13.61l2.001-2.06c.227.122.466.216.706.324v7.909zm-19.891-1.86c0 1.19-.938 2.156-2.094 2.156s-2.094-.965-2.094-2.156c0-1.19.938-2.156 2.094-2.156s2.094.965 2.094 2.156zm23.03-15.094c-1.734 0-3.14 1.448-3.14 3.235v3.42c-2.463-1.465-3.663-4.45-2.927-7.277.736-2.828 3.224-4.794 6.067-4.794s5.332 1.966 6.067 4.794c.736 2.828-.464 5.812-2.926 7.276v-3.42c0-1.786-1.406-3.234-3.14-3.234zM66.67 55.773H50.966V50.92c0-1.786-1.406-3.234-3.14-3.234H46.6c-.445-1.292-1.631-2.155-2.962-2.156h-1.226c-.445-1.292-1.63-2.155-2.961-2.157h-1.047v-.12c.295-.123.582-.262.863-.419h9.238l5.234 4.313h12.93v8.625zm0-10.782H54.475L49.24 40.68h-7.478a8.763 8.763 0 001.353-2.452v.296h13.234c.527 2.102 2.49 3.474 4.583 3.2 2.091-.274 3.66-2.107 3.66-4.278 0-2.172-1.569-4.005-3.66-4.279-2.092-.273-4.056 1.098-4.583 3.2h-4.154l4.487-5.39h9.987v14.016zm-8.375-7.546c0-1.191.938-2.157 2.094-2.157s2.094.966 2.094 2.157c0 1.19-.938 2.156-2.094 2.156s-2.094-.966-2.094-2.156zm8.375-8.625H55.72l-6.281 7.547H43.55c.052-.357.081-.717.087-1.079a8.757 8.757 0 00-1.133-4.312h4.711l7.328-7.547h1.81c.526 2.103 2.49 3.474 4.582 3.2 2.091-.274 3.66-2.107 3.66-4.278 0-2.172-1.569-4.005-3.66-4.278-2.092-.274-4.056 1.097-4.583 3.2h-2.68l-7.328 7.547h-5.56a8.306 8.306 0 00-3.1-1.785l2.491-6.84h2.564c.527 2.102 2.49 3.474 4.582 3.2 2.092-.274 3.66-2.107 3.66-4.279 0-2.171-1.568-4.004-3.66-4.278s-4.055 1.098-4.582 3.2h-4.015l-3.148 8.642c-.104 0-.209-.017-.314-.017-.35.002-.7.028-1.047.075v-3.755l-2.093-2.157v-8.178h34.546V28.82zm-8.375-6.47c0-1.19.938-2.155 2.094-2.155s2.094.965 2.094 2.156c0 1.19-.938 2.156-2.094 2.156s-2.094-.965-2.094-2.156zm-13.609-3.234c0-1.19.938-2.156 2.094-2.156s2.094.966 2.094 2.156c0 1.191-.938 2.157-2.094 2.157-1.157 0-2.094-.966-2.094-2.157zm21.984-8.624H3.857v-6.47h62.812v6.47z"/></svg>