<svg viewBox="0 0 71 71" xmlns="http://www.w3.org/2000/svg" fill="#3863a6"><path d="M35.466 2.845a.84.84 0 00.84-.84V1.84a.84.84 0 10-1.68 0v.167a.84.84 0 00.84.839zm-.839 6.004a.84.84 0 101.678 0v-4.79a.84.84 0 10-1.678 0v4.79zm0 9.741a.84.84 0 001.678 0v-7.809a.84.84 0 10-1.678 0v7.81zM39.67 8.244a.84.84 0 00.839-.84V1.84a.84.84 0 00-1.679 0v5.566c0 .463.376.84.84.84zm-.84 9.066a.84.84 0 101.679 0v-7.302a.84.84 0 10-1.679 0v7.303zm-8.128-2.69a.84.84 0 001.68 0V9.518a.84.84 0 10-1.68 0v5.1zm.84-6.506a.84.84 0 00.84-.84V6.036a.84.84 0 10-1.68 0v1.238c0 .464.376.84.84.84z"/><path d="M30.702 26.74l-2.296.073a.84.84 0 00-.548 1.45l7.217 6.774c.338.317.87.3 1.186-.038l6.774-7.217a.839.839 0 00-.638-1.413l-1.824.058-.064-7.121a.84.84 0 00-.84-.832h-.007a.839.839 0 00-.831.847l.07 7.98a.84.84 0 00.866.832l.657-.02-4.812 5.126-5.127-4.813 1.083-.034a.84.84 0 00.813-.839V17.248a.84.84 0 00-1.679 0v9.491zM18.678 8.385a.84.84 0 00.84-.84V3.239a.84.84 0 10-1.68 0v4.308c0 .464.377.84.84.84zm-.839 6.072a.84.84 0 001.678 0v-3.804a.84.84 0 10-1.678 0v3.804zm0 3.452a.84.84 0 001.678 0v-1.226a.84.84 0 10-1.678 0v1.226zm5.043-9.468a.84.84 0 00.839-.84V5.758a.84.84 0 00-1.679 0v1.845a.84.84 0 00.84.839zm-.84 5.411a.84.84 0 101.679 0V10.78a.84.84 0 00-1.679 0v3.07zm0 7.543a.84.84 0 101.679 0v-4.938a.84.84 0 00-1.679 0v4.938zm-8.127.219a.84.84 0 001.678 0v-8.946a.84.84 0 10-1.678 0v8.946zm.839-11.41a.84.84 0 00.84-.84V3.239a.84.84 0 10-1.68 0v6.127a.84.84 0 00.84.839zm-.839 18.066a.84.84 0 101.678 0v-4.027a.84.84 0 10-1.678 0v4.027zm-.001 8.262l-2.296.074a.839.839 0 00-.548 1.45l7.217 6.774a.84.84 0 001.187-.038l6.773-7.217a.839.839 0 00-.638-1.413l-1.825.058-.063-5.994v-6.228a.84.84 0 00-1.678 0v6.236l.07 6.86a.84.84 0 00.867.83l.657-.02-4.813 5.127-5.127-4.813 1.083-.034a.84.84 0 00.813-.839V30.53a.84.84 0 10-1.679 0v6.002zM50.709 4.244a.84.84 0 00.84-.84v-.166a.84.84 0 10-1.68 0v.167a.84.84 0 00.84.839zm-.839 6.843a.84.84 0 101.678 0v-4.23a.84.84 0 10-1.678 0v4.23zm0 2.747a.84.84 0 001.678 0v-.255a.84.84 0 10-1.678 0v.255zm5.043-6.989a.84.84 0 00.84-.84V3.239a.84.84 0 00-1.68 0v2.768c0 .463.376.84.84.84zm-.839 9.486a.84.84 0 101.678 0V8.61a.84.84 0 10-1.678 0v7.722zm-7.289-7.867a.84.84 0 00.84-.84V4.748a.84.84 0 00-1.68 0v2.876c0 .464.376.84.84.84zm-.84 9.314a.84.84 0 101.68 0v-7.525a.84.84 0 00-1.68 0v7.525zm5.56 24.216l6.773-7.217a.841.841 0 00-.639-1.413l-1.82.058-.067-14.113a.84.84 0 00-.839-.836h-.004a.84.84 0 00-.835.844l.07 14.975a.839.839 0 00.867.835l.657-.021-4.813 5.127-5.127-4.813 1.084-.034a.84.84 0 00.812-.839v-13.81a.84.84 0 00-1.679 0v12.998l-2.295.073a.84.84 0 00-.549 1.451l7.217 6.773a.84.84 0 001.187-.037v-.001zM34.656 66.603c6.534 0 11.831-5.297 11.831-11.831S41.19 42.94 34.656 42.94c-6.535 0-11.832 5.298-11.832 11.832.007 6.531 5.3 11.824 11.832 11.831zm0-21.984c5.607 0 10.153 4.545 10.153 10.153 0 5.607-4.546 10.153-10.153 10.153s-10.153-4.546-10.153-10.153c.006-5.605 4.548-10.147 10.153-10.153z"/><path d="M23.18 66.246c.022.02.044.038.067.055 6.315 6.265 16.502 6.265 22.818 0a.712.712 0 00.066-.055.712.712 0 00.055-.066c6.265-6.316 6.265-16.501 0-22.817a.427.427 0 00-.121-.121c-6.316-6.266-16.502-6.266-22.818 0a.427.427 0 00-.121.12c-6.265 6.317-6.265 16.502 0 22.818a.712.712 0 00.055.066zm-2.314-12.314h-.735a14.496 14.496 0 013.665-8.832l.515.514a.84.84 0 101.187-1.187l-.515-.514a14.494 14.494 0 018.833-3.666v.735a.84.84 0 001.679 0v-.735a14.493 14.493 0 018.833 3.666l-.515.514A.84.84 0 0045 45.614l.515-.514a14.49 14.49 0 013.665 8.832h-.734a.839.839 0 100 1.68h.734a14.49 14.49 0 01-3.665 8.831L45 63.93a.84.84 0 10-1.187 1.187l.515.515a14.492 14.492 0 01-8.833 3.665v-.734a.84.84 0 00-1.679 0v.734a14.492 14.492 0 01-8.833-3.665l.515-.515a.84.84 0 10-1.187-1.187l-.515.514a14.49 14.49 0 01-3.665-8.832h.735a.84.84 0 100-1.679z"/><path d="M33.262 48.857v.488a3.189 3.189 0 00-2.73 3.152v.455a3.188 3.188 0 003.185 3.184h1.82c.25 0 .455.204.455.455v.455a.455.455 0 01-.456.455h-1.82a.455.455 0 01-.454-.455v-.455h-2.73v.455a3.19 3.19 0 002.73 3.152v.487c0 .753.612 1.365 1.365 1.365.752 0 1.364-.612 1.364-1.365v-.487a3.189 3.189 0 002.73-3.152v-.455a3.189 3.189 0 00-3.184-3.184h-1.82a.455.455 0 01-.455-.455v-.455c0-.251.204-.455.455-.455h1.82c.25 0 .455.204.455.455v.455h2.729v-.455a3.189 3.189 0 00-2.73-3.152v-.488a1.366 1.366 0 00-2.729 0zm1.82 0v1.365h.454c1.1 0 2.018.783 2.23 1.82h-.942a1.368 1.368 0 00-1.288-.91h-1.82c-.752 0-1.364.612-1.364 1.365v.455c0 .752.613 1.364 1.365 1.364h1.82a2.277 2.277 0 012.274 2.275v.455a2.277 2.277 0 01-2.275 2.275h-.454v1.364a.455.455 0 01-.91 0v-1.364h-.455a2.278 2.278 0 01-2.229-1.82h.942c.188.53.694.91 1.287.91h1.82c.752 0 1.364-.613 1.364-1.365v-.455c0-.752-.612-1.365-1.365-1.365h-1.82a2.277 2.277 0 01-2.274-2.274v-.455a2.277 2.277 0 012.275-2.275h.455v-1.365a.455.455 0 01.91 0z"/></svg>