<svg viewBox="0 0 71 71" xmlns="http://www.w3.org/2000/svg" fill="#3863a6"><path d="M5.656 57.906c-.319 0-.631.13-.856.354a1.22 1.22 0 00-.355.857c0 .318.13.63.355.856.225.225.537.354.856.354.318 0 .63-.13.856-.354a1.22 1.22 0 00.355-.856c0-.319-.13-.632-.355-.857a1.22 1.22 0 00-.856-.354zm59.578-23.243h-5.998c1.602-5.359 3.558-11.207 5.998-11.207a1.21 1.21 0 100-2.422c-4.31 0-6.412 6.493-8.526 13.63H43.801c-1.982-7.163-3.992-13.63-8.441-13.63-4.44 0-6.541 6.458-8.616 13.63H13.537c-1.969-6.487-3.706-12.175-6.67-13.39v-8.658a1.21 1.21 0 10-2.422 0v41.785a1.21 1.21 0 102.422 0V37.085h4.876c2.21 7.214 4.449 13.63 8.612 13.63 4.197 0 6.175-6.554 8.212-13.63h13.39c1.953 7.091 3.87 13.63 8.137 13.63 4.25 0 6.32-6.517 8.424-13.63h6.716a1.21 1.21 0 100-2.422zM35.36 23.456c2.555 0 4.417 5.818 5.927 11.207h-12.02c1.583-5.407 3.527-11.207 6.093-11.207zm-28.493.852c.389.485.853 1.239 1.38 2.406.967 2.138 1.845 4.946 2.759 7.95h-4.14V24.307zm13.488 23.984c-2.328 0-4.428-5.907-6.077-11.207h11.768c-1.525 5.266-3.392 11.207-5.691 11.207zm29.74 0c-2.356 0-4.16-5.924-5.626-11.207h11.523c-1.588 5.323-3.524 11.207-5.898 11.207z"/></svg>