<svg xmlns="http://www.w3.org/2000/svg" viewBox="0 0 512 512" fill="#3863a6"><path d="M505.4 34.8c-1.3-1.5-3.1-2.5-5.1-2.7l-111.4-9.5-2.1-16c-.5-4.1-4.3-7.1-8.4-6.5l-103.3 13c-.4-.1-.8-.2-1.3-.2L131.7.7c-4.1-.4-7.8 2.8-8.2 6.9l-2.1 24.8-110 13.8c-4.1.5-7.1 4.3-6.5 8.4L61 501.4c.3 2-.2 4 .7 6 1.2 2.8 3.9 4.6 6.9 4.6h369.9c4.2 0 7.5-3.4 7.5-7.5v-9.8l14.6 1.2c4.1.4 7.8-2.8 8.2-6.9l38.4-448.7c.1-2-.5-3.9-1.8-5.5zM61.1 381L20.8 60.2l40.3-5.1V381zM138 16.4l66 5.6-67.2 8.4 1.2-14zm234.8-.4l3.9 30.6H129.1L372.8 16zm81.7 464.2l-8.4-.7V259.2c0-4.2-3.4-7.5-7.5-7.5s-7.5 3.4-7.5 7.5v237.7H76.2V61.7H431V224c0 4.2 3.4 7.5 7.5 7.5s7.5-3.4 7.5-7.5V54.1c0-4.2-3.4-7.5-7.5-7.5h-46.7l-1.1-8.6 100.7 8.6-36.9 433.6z"/><path d="M398.3 86.8h-40.2c-2.5 0-4.9 1.3-6.3 3.4l-17.1 25.6c-18.4-13.2-40.9-20.9-65.1-20.9-4.2 0-7.5 3.4-7.5 7.5v104.5c0 4.2 3.4 7.5 7.5 7.5h104.5c4.2 0 7.5-3.4 7.5-7.5 0-32.1-13.6-61.1-35.3-81.5l15.7-23.5h36.2c4.2 0 7.5-3.4 7.5-7.5s-3.2-7.6-7.4-7.6zm-31.9 112.6h-89.2v-89.2c18.3 1.4 35.2 7.9 49.2 18.1l-6.7 10.1c-2.1 3.2-1.5 7.5 1.4 10 3.4 2.9 8.7 2.1 11.1-1.6l5.8-8.6c16 15.9 26.5 37.3 28.4 61.2z"/><path d="M398.3 336.1h-68.2l-12-19.2c19.5-20.2 31.5-47.6 31.5-77.8 0-4.2-3.4-7.5-7.5-7.5h-97v-97c0-4.2-3.4-7.5-7.5-7.5-61.8 0-112.1 50.3-112.1 112.1s50.3 112.1 112.1 112.1c26.1 0 50.2-9 69.3-24l12.8 20.5c1.4 2.2 3.8 3.5 6.4 3.5h72.4c4.2 0 7.5-3.4 7.5-7.5s-3.5-7.7-7.7-7.7zm-106.1-60.8c-2.2-3.5-6.9-4.6-10.4-2.4-3.5 2.2-4.6 6.9-2.4 10.4l19.4 31c-16.7 13.6-38 21.8-61.2 21.8-53.5 0-97-43.5-97-97 0-50.9 39.5-92.9 89.5-96.7v96.7c0 4.2 3.4 7.5 7.5 7.5h96.7c-1.7 21.8-10.6 41.6-24.4 57l-17.7-28.3zm-119 101h-64.3c-4.2 0-7.5 3.4-7.5 7.5s3.4 7.5 7.5 7.5h64.3c4.2 0 7.5-3.4 7.5-7.5s-3.4-7.5-7.5-7.5zm96.5 0h-64.3c-4.2 0-7.5 3.4-7.5 7.5s3.4 7.5 7.5 7.5h64.3c4.2 0 7.5-3.4 7.5-7.5s-3.4-7.5-7.5-7.5zm-56.3 40.2H108.9c-4.2 0-7.5 3.4-7.5 7.5 0 4.2 3.4 7.5 7.5 7.5h104.5c4.2 0 7.5-3.4 7.5-7.5s-3.4-7.5-7.5-7.5zm56.3 0h-24.1c-4.2 0-7.5 3.4-7.5 7.5 0 4.2 3.4 7.5 7.5 7.5h24.1c4.2 0 7.5-3.4 7.5-7.5s-3.4-7.5-7.5-7.5zM141 456.7h-32.2c-4.2 0-7.5 3.4-7.5 7.5s3.4 7.5 7.5 7.5H141c4.2 0 7.5-3.4 7.5-7.5s-3.3-7.5-7.5-7.5zm128.7 0h-96.5c-4.2 0-7.5 3.4-7.5 7.5s3.4 7.5 7.5 7.5h96.5c4.2 0 7.5-3.4 7.5-7.5s-3.4-7.5-7.5-7.5z"/></svg>