<svg xmlns="http://www.w3.org/2000/svg" viewBox="0 -3 496 495" fill="#3863a6"><path d="M432 245.3h-16c0 92.6-75.4 168-168 168s-168-75.4-168-168C80 159.7 144.4 89 227.3 78.7l-16.9 16.9 11.3 11.3 37.7-37.7-37.7-37.7-11.3 11.3 19.3 19.3c-92.9 9.3-165.6 87.8-165.6 183.1 0 101.5 82.5 184 184 184s184-82.5 184-184zM191.8 3.6L207.5.5l3.1 15.7-15.7 3.1zm-46.1 15.6l14.8-6.1 6.1 14.8-14.8 6.1zm-42.1 24.3l13.3-8.9 8.9 13.3-13.3 8.9zM67 75.6l11.3-11.3 11.3 11.3-11.3 11.3zm0 0"/><path d="M224 141.3v8.6c-27.1 3.9-48 27.3-48 55.4v8c0 30.9 25.1 56 56 56h32c4.4 0 8 3.6 8 8v8c0 4.4-3.6 8-8 8h-32c-4.4 0-8-3.6-8-8v-8h-48v8c0 28.2 20.9 51.5 48 55.4v8.6c0 13.2 10.8 24 24 24s24-10.8 24-24v-8.6c27.1-3.9 48-27.3 48-55.4v-8c0-30.9-25.1-56-56-56h-32c-4.4 0-8-3.6-8-8v-8c0-4.4 3.6-8 8-8h32c4.4 0 8 3.6 8 8v8h48v-8c0-28.2-20.9-51.5-48-55.4v-8.6c0-13.2-10.8-24-24-24s-24 10.8-24 24zm32 0v24h8c19.3 0 35.5 13.8 39.2 32h-16.6c-3.3-9.3-12.2-16-22.6-16h-32c-13.2 0-24 10.8-24 24v8c0 13.2 10.8 24 24 24h32c22.1 0 40 17.9 40 40v8c0 22.1-17.9 40-40 40h-8v24c0 4.4-3.6 8-8 8s-8-3.6-8-8v-24h-8c-19.3 0-35.5-13.8-39.2-32h16.6c3.3 9.3 12.2 16 22.6 16h32c13.2 0 24-10.8 24-24v-8c0-13.2-10.8-24-24-24h-32c-22.1 0-40-17.9-40-40v-8c0-22.1 17.9-40 40-40h8v-24c0-4.4 3.6-8 8-8s8 3.6 8 8zM68.4 98.4L56 88.3C19.8 132.4-.1 188.2-.1 245.4c0 61.1 22.4 119.8 63.2 165.3L75 400c-38.1-42.6-59.1-97.5-59.1-154.7 0-53.5 18.6-105.6 52.4-146.9zm217 376l15.7-3.1 3.1 15.7-15.7 3.1zm44-11.7l14.8-6.1 6.1 14.8-14.8 6.1zm40.8-20.1l13.3-8.9 8.9 13.3-13.3 8.9zm36.2-27.6l11.3-11.3L429 415l-11.3 11.3zm26.4-335l-11.9 10.7C459 133.3 480 188.2 480 245.4c0 53.5-18.6 105.6-52.4 146.9l12.4 10.1c36.2-44.1 56.1-99.9 56.1-157.1 0-61.1-22.4-119.8-63.2-165.3zm0 0"/></svg>