<svg xmlns="http://www.w3.org/2000/svg" viewBox="0 0 488.9 488.9" fill="#3863a6"><path d="M478.1 333l-32.8-6.9c-.7-.1-1.2-.6-1.5-1.2-.3-.6-.2-1.3.2-1.9l19-27.6c2.2-3.2 1.8-7.5-.9-10.2l-30-30c-2.7-2.7-7-3.1-10.2-.9l-27.6 19c-.9.6-2.2.4-2.8-.5-.1-.2-.2-.4-.3-.7l-6.9-32.9c-.8-3.7-4.1-6.4-7.8-6.4h-12v-94.6c15.4 1.1 30.4 5.7 43.9 13.3 3.1 1.8 7.1 1.3 9.6-1.3 6.9-6.8 16.2-10.6 26-10.6h.3c9.5 0 18.6 3.9 25.2 10.7 1.5 1.6 3.6 2.5 5.8 2.4.8 0 1.7-.1 2.5-.4 2.9-1 5-3.5 5.4-6.5 9.9-70-38.9-134.8-108.9-144.6S239.5 40.1 229.7 110.1c-1.7 11.9-1.7 23.9 0 35.8.6 4.4 4.6 7.5 9 6.9 1.8-.2 3.5-1.1 4.7-2.4 6.6-6.8 15.7-10.7 25.2-10.7h.3c9.7 0 19.1 3.8 26 10.6 2.5 2.6 6.5 3.1 9.6 1.3 13.4-7.7 28.5-12.2 43.9-13.3v94.6h-12c-3.8 0-7.1 2.6-7.8 6.4l-6.9 32.8c-.1.7-.6 1.2-1.2 1.4-.6.3-1.3.2-1.9-.2l-27.6-19c-3.2-2.2-7.5-1.8-10.2.9L267 269a489.12 489.12 0 00-41.7-34.5c-1.3-1-2.9-1.5-4.5-1.5l46-59.1c2.7-3.5 2.1-8.5-1.4-11.2-1.9-1.5-4.5-2-6.8-1.4l-49.3 12.3 10.6-25.5c1.7-4.1-.3-8.8-4.4-10.4-2-.8-4.2-.8-6.2 0l-52 22.3-44.4-29.6c-3.7-2.5-8.6-1.5-11.1 2.2-1.4 2.2-1.8 4.9-.8 7.3l9.6 24.8-39.9-11.4c-4.3-1.2-8.7 1.3-9.9 5.5-.7 2.3-.2 4.8 1.1 6.8L109 233h-.6c-1.7 0-3.4.6-4.8 1.6C79.1 252.9 4.4 308.8 4.4 369c0 100.4 91.3 112 160 112 48.1 0 84-6.9 109.7-21l6.6 6.6c2.7 2.7 7 3.1 10.2.9l27.6-19c.9-.6 2.2-.4 2.8.5.1.2.3.5.3.7l6.9 32.9c.8 3.7 4 6.4 7.8 6.4h40c3.8 0 7.1-2.6 7.8-6.4l6.9-32.9c.1-.7.6-1.2 1.2-1.4.6-.2 1.3-.2 1.9.2l27.6 19c3.2 2.2 7.5 1.8 10.2-.9l30-30c2.7-2.7 3.1-7 .9-10.2l-19-27.6c-.4-.5-.5-1.3-.2-1.9.2-.6.8-1.1 1.5-1.2l32.9-6.9c3.7-.8 6.4-4 6.4-7.8v-40c0-3.9-2.6-7.2-6.3-8zm-9.7-204.1v.9c-7.4-3.9-15.6-6-24-6.1-8.3 0-16.5 1.9-24 5.6v-.5c0-44.5-10.8-82.9-27.6-105.8 45.2 15.6 75.5 58.1 75.6 105.9zm-176 0v.4c-7.5-3.7-15.7-5.6-24-5.6-8.4.1-16.6 2.1-24 6.1v-.9c.1-47.8 30.4-90.2 75.6-105.8-16.8 22.8-27.6 61.3-27.6 105.8zm16 2.9v-2.9c0-66 25.3-112 48-112s48 46 48 112v2.9c-30.6-13.3-65.4-13.3-96 0zm-68.5 50.4l-39.4 50.6h-16.1l17.1-41 38.4-9.6zm-87.9-6.7c2.3 1.5 5.1 1.8 7.6.7l37.9-16.2-30.4 72.9h-13.2l-29-75.4 27.1 18zm-64.1-.8l29.8 8.5 19.1 49.6h-8.2l-40.7-58.1zm76.5 290.2c-99.6 0-144-29.6-144-96 0-34.2 30.5-74.6 90.7-120h18.6l-18.1 60.5c-3.1 10.3 2.8 21.1 13.1 24.2 6.9 2.1 14.3.2 19.3-4.9l18.2-18.2-11.3-11.3-18.2 18.2c-1.3 1.4-3.5 1.4-4.9 0-.9-.9-1.2-2.2-.9-3.4l19.5-65.1H166l14.6 65.7 15.6-3.5-13.9-62.3h35.4c13.2 9.8 25.8 20.4 37.9 31.5l-4.8 4.8c-2.7 2.7-3.1 7-.9 10.2l19 27.6c.4.5.5 1.3.2 1.9-.2.6-.8 1.1-1.5 1.2l-32.9 6.9c-3.7.8-6.4 4-6.4 7.8v40c0 3.8 2.6 7.1 6.4 7.8l32.9 6.9c.7.1 1.2.6 1.5 1.2.3.6.2 1.3-.2 1.9l-19 27.6c-2.2 3.2-1.8 7.5.9 10.2l11.6 11.6c-23.1 11.5-55.3 17-98 17zm304-90.5l-26.5 5.6c-9.7 2-16 11.6-13.9 21.3.5 2.3 1.4 4.6 2.8 6.5l15.2 22.1-20.5 20.5-22.1-15.2c-8.2-5.6-19.4-3.6-25 4.6-1.4 2-2.3 4.2-2.8 6.5l-5.6 26.5h-27l-5.6-26.5c-2-9.7-11.6-16-21.3-13.9-2.3.5-4.5 1.4-6.5 2.8l-22.1 15.2-20.5-20.5 15.2-22.1c5.6-8.2 3.6-19.4-4.6-25-2-1.4-4.2-2.3-6.5-2.8l-26.5-5.6v-27l26.5-5.6c9.7-2 16-11.6 13.9-21.3-.5-2.3-1.4-4.6-2.8-6.5L267 291.9l20.5-20.5 22.2 15.2c8.2 5.6 19.4 3.6 25-4.6 1.4-2 2.3-4.2 2.8-6.5l5.6-26.5h27l5.6 26.5c2 9.7 11.6 16 21.3 13.9 2.3-.5 4.6-1.4 6.5-2.8l22.1-15.2 20.5 20.5-15.2 22.1c-5.6 8.2-3.6 19.4 4.6 25 2 1.4 4.2 2.3 6.5 2.8l26.5 5.6-.1 27z"/><path d="M404.9 332.9l-13.8 8c3.5 6.1 5.4 13 5.3 20h16c0-9.9-2.6-19.5-7.5-28z"/><path d="M391.1 380.9a40.1 40.1 0 01-34.7 20c-22.1 0-40-17.9-40-40s17.9-40 40-40c7.9 0 15.5 2.3 22.1 6.7l8.9-13.3c-25.8-17.1-60.5-10.1-77.6 15.7-17.1 25.8-10.1 60.5 15.7 77.6 25.8 17.1 60.5 10.1 77.6-15.7.6-1 1.3-2 1.8-3l-13.8-8zm-226.7-4h24v-16h-16v-8h-16v9.5c-12.5 4.4-19 18.1-14.6 30.5 3.4 9.6 12.5 16 22.6 16 4.4 0 8 3.6 8 8s-3.6 8-8 8h-24v16h16v8h16v-9.5c12.5-4.4 19-18.1 14.6-30.5-3.4-9.6-12.5-16-22.6-16-4.4 0-8-3.6-8-8s3.6-8 8-8z"/></svg>