<svg xmlns="http://www.w3.org/2000/svg" viewBox="0 0 334 332" fill="none"><style>.a{fill:#fff}</style><circle cx="274.6" cy="123.6" r="5.6" transform="rotate(-122.625 274.606 123.576)" class="a"/><circle cx="46.6" cy="169.3" r="5.6" transform="rotate(-122.625 46.594 169.3)" class="a"/><circle cx="54" cy="203.9" r="5.6" transform="rotate(-122.625 54.017 203.869)" class="a"/><circle cx="259.3" cy="94.4" r="5.6" transform="rotate(-122.625 259.27 94.358)" class="a"/><path d="M48.3 170.7c-1.1-39.7 18-78.9 53.9-101.9 51.7-33.1 119.6-20.4 156.1 27.7l1.7-1.1c-37.1-49-106.3-62-158.9-28.3-36.5 23.4-56 63.3-54.8 103.7l2-.1zm3.7 33.2c3.1 9.5 7.4 18.7 13 27.5 35.4 55.3 109 71.5 164.3 36.1 48.9-31.3 67.2-92.4 46.4-144.3l-1.7 1.1c20.2 51 2.2 110.8-45.7 141.5-54.4 34.8-126.8 18.9-161.6-35.5-5.4-8.5-9.6-17.4-12.6-26.5l-2.1.1z" class="a"/><circle cx="166.3" cy="166.6" r="96.8" transform="rotate(-122.625 166.341 166.551)" stroke-opacity=".3" stroke-width="10" stroke="#00e0ff"/><circle cx="165.6" cy="166.4" r="89.3" transform="rotate(-122.625 165.566 166.381)" stroke-width="2" stroke="#00e0ff"/><path d="M208 261.6c-21.7 9.5-45.4 11.1-67.4 5.5l-.8-14.8c21.8 6.7 46 5.2 67.4-5.8l.8 15.1z" fill-opacity=".7" fill="#fff"/><path d="M70.7 207c2.3 5.3 5 10.5 8.2 15.5 3.1 4.8 6.5 9.2 10.1 13.3l12-7.7c-3.8-4-7.2-8.4-10.3-13.2-3.2-5-5.9-10.2-8-15.6l-12 7.7z" fill-opacity=".6" fill="#fff"/><path d="M169.8 62.8c25.1.9 49.6 10.8 68.3 28.7l-6.2 13.7C214 86 188.9 76 163.5 76.8l6.3-14z" fill-opacity=".4" fill="#fff"/></svg>